# xmcd
# 
# Track frame offsets:
#     150
#     15766
#     46380
#     63436
#     81180
#     104211
#     134670
#     153614
#     171175
#     192896
#     215092
#     243188
#     261779
#     281028
#     301070
#     321698
# 
# Disc length: 4511
# 
# Revision: 1
# Processed by: cddbd v1.5.2PL0 Copyright (c) Steve Scherf et al.
# Submitted via: fre:ac v1.0.31
# 
DISCID=ed119d10
DTITLE=Ricardo Arjona - Simplemente... Lo Mejor
DYEAR=2008
DGENRE=Pop
TTITLE0=Mujeres
TTITLE1=Jesus Verbo No Sustantivo
TTITLE2=Primera Vez
TTITLE3=Quien Diria
TTITLE4=Señora De Las Cuatro Decadas
TTITLE5=Historia De Taxi
TTITLE6=Te Conozco
TTITLE7=Realmente No Estoy Tan Solo
TTITLE8=Tu Reputación
TTITLE9=Si El Norte Fuera El Sur
TTITLE10=Ella Y El
TTITLE11=Se Nos Muere El Amor
TTITLE12=Desnuda
TTITLE13=Dime Que No
TTITLE14=Cuándo
TTITLE15=A Cara O Cruz
EXTD=
EXTT0=
EXTT1=
EXTT2=
EXTT3=
EXTT4=
EXTT5=
EXTT6=
EXTT7=
EXTT8=
EXTT9=
EXTT10=
EXTT11=
EXTT12=
EXTT13=
EXTT14=
EXTT15=
PLAYORDER=
